<?xml version="1.0" encoding="utf-8"?>
<!-- Generator: Adobe Illustrator 24.0.2, SVG Export Plug-In . SVG Version: 6.00 Build 0)  -->
<svg version="1.1" xmlns="http://www.w3.org/2000/svg" xmlns:xlink="http://www.w3.org/1999/xlink" x="0px" y="0px"
	 viewBox="0 0 750 500" style="enable-background:new 0 0 750 500;" xml:space="preserve">
<style type="text/css">
	.st0{fill:#965450;}
	.st1{fill:#76413B;}
	.st2{fill:#FDEDEE;}
	.st3{opacity:0.1;fill:#352C38;}
	.st4{fill:#6F96BD;}
	.st5{fill:#88BBE5;}
	.st6{fill:#FFFFFF;}
	.st7{fill:#352C38;}
	.st8{fill:#FDDEC0;}
	.st9{fill:#D3B9A3;}
</style>
<g id="BACKGROUND">
</g>
<g id="OBJECTS">
	<g>
		<g>
			<g>
				<path class="st0" d="M450.1,342.2c-22.8-12.5-16.6-72.7-16.6-72.7l-34.2,2.2v-2.2l-3.7,1.1l-3.7-1.1v2.2l-34.2-2.2
					c0,0,6.2,60.2-16.6,72.7c-22.8,12.5-157.8,18.7-143.3,157.8H392h7.3h194.1C607.9,360.9,472.9,354.7,450.1,342.2z"/>
				<path class="st1" d="M353,326.7c27.3-4.1,54.6-8.3,81.9-12.6c-3.8-20.8-1.4-44.5-1.4-44.5l-34.2,2.2v-2.2l-3.7,1.1l-3.7-1.1v2.2
					l-34.2-2.2C357.8,269.5,361.4,304.5,353,326.7z"/>
			</g>
			<g>
				<g>
					<path class="st2" d="M478.8,347.9c-12.3,32-44.9,54.9-83.2,54.9s-71-22.9-83.2-54.9c-47,12.9-129.8,40.5-118.1,152.1h197.6h7.5
						h197.6C608.6,388.5,525.9,360.8,478.8,347.9z"/>
					<path class="st3" d="M564.8,391.6c-50.5,32.7-111.3,45.5-167.9,63.5C343.8,472,290,486.7,236,500h360.9
						C602.4,447.9,587.2,414.2,564.8,391.6z"/>
				</g>
				<g>
					<g>
						<path class="st4" d="M486.8,350.2V500h110.1C608,394.5,534.6,364.1,486.8,350.2z"/>
						<path class="st4" d="M303.7,350.4c-47.8,14-120.3,44.7-109.4,149.6h109.4V350.4z"/>
					</g>
					<path class="st5" d="M305,350.4V500c0,0-55.2-94.1-52.5-126.4S299.6,339.4,305,350.4z"/>
					<path class="st5" d="M484,350.4V500c0,0,55.2-94.1,52.5-126.4C533.8,341.3,489.4,339.4,484,350.4z"/>
				</g>
			</g>
		</g>
		<g>
			<g>
				<path class="st1" d="M328.7,181.4c-6.7-20.9-22.7-16-24.2-15.5c-1.6,0.2-18,2.6-15.2,24.4c2.9,21.9,15.6,33.7,27.5,30.3
					C329.1,218.5,335.5,202.4,328.7,181.4z"/>
				<path class="st1" d="M463.1,181.4c6.7-20.9,22.7-16,24.2-15.5c1.6,0.2,18,2.6,15.2,24.4c-2.9,21.9-15.6,33.7-27.5,30.3
					C462.7,218.5,456.3,202.4,463.1,181.4z"/>
				<path class="st0" d="M312.4,149.7c8.3-91.5,77.9-86.4,84.5-85.7c6.6-0.7,76.1-5.8,84.5,85.7c8.4,92.1-32.6,152.2-84.5,148.9
					C345,301.9,304,241.8,312.4,149.7z"/>
			</g>
			<g>
				<g>
					<path class="st1" d="M408.9,160.5c0.7,4.2,1.4,8.5,2,12.8c0.6,4.3,1.1,8.5,1.7,12.8c0.5,4.3,1,8.5,1.5,12.8
						c0.5,4.3,0.9,8.6,1.3,12.8l0,0.4l-0.3,0.2c-2.7,1.8-5.4,3.5-8.1,5.3c-2.7,1.7-5.4,3.5-8.2,5.1c2.5-2,5.1-3.9,7.7-5.8
						c2.6-1.9,5.2-3.8,7.8-5.7l-0.3,0.6c-0.6-4.3-1.1-8.5-1.6-12.8c-0.5-4.3-0.9-8.6-1.4-12.8c-0.4-4.3-0.8-8.6-1.2-12.9
						C409.4,169.1,409.1,164.8,408.9,160.5z"/>
				</g>
				<path class="st6" d="M432.4,239.1c-16.6,16.1-44.6,15.2-65.9,0.9"/>
				<g>
					<path class="st7" d="M462.5,153.7c-3.2-2.8-6.6-5.3-10.2-7.3c-1.8-1-3.7-1.8-5.6-2.5c-1.9-0.7-3.9-1.1-5.9-1.2
						c-4-0.4-8,0.4-11.7,2.1c-3.7,1.7-7.1,4.2-10.3,7c2.4-3.5,5.5-6.7,9.3-8.9c1.9-1.1,4-2,6.2-2.5c2.2-0.5,4.5-0.6,6.7-0.4
						c4.5,0.4,8.7,2.2,12.3,4.6C457,147.1,460.2,150.1,462.5,153.7z"/>
				</g>
				<g>
					<path class="st7" d="M375.8,153.7c-3.2-2.8-6.6-5.3-10.2-7.3c-1.8-1-3.7-1.8-5.6-2.5c-1.9-0.7-3.9-1.1-5.9-1.2
						c-4-0.4-8,0.4-11.7,2.1c-3.7,1.7-7.1,4.2-10.3,7c2.4-3.5,5.5-6.7,9.3-8.9c1.9-1.1,4-2,6.2-2.5c2.2-0.5,4.5-0.6,6.7-0.4
						c4.5,0.4,8.7,2.2,12.3,4.6C370.3,147.1,373.5,150.1,375.8,153.7z"/>
				</g>
				<g>
					<path class="st7" d="M373.1,186.9c-0.3-2-0.8-3.9-1.6-5.8c-0.7-1.8-1.7-3.6-2.9-5.1c-1.2-1.5-2.7-2.8-4.5-3.6
						c-1.7-0.9-3.6-1.2-5.6-1.3c-1,0-1.9,0-2.9,0.2c-0.9,0.2-1.9,0.4-2.8,0.8c-1.8,0.7-3.3,2-4.4,3.6c-1.1,1.6-1.9,3.4-2.3,5.4
						c-0.5,1.9-0.7,3.9-0.7,5.9c-0.4-4,0.1-8.2,2.3-11.8c1.1-1.8,2.8-3.2,4.7-4.1c1-0.4,2-0.7,3-0.9c1-0.2,2.1-0.2,3.1-0.2
						c2.1,0.1,4.2,0.5,6.1,1.5c1.9,1,3.5,2.4,4.7,4.1C371.8,178.8,372.9,182.8,373.1,186.9z"/>
				</g>
				<g>
					<path class="st7" d="M451,185.6c-0.3-2-0.8-3.9-1.6-5.8c-0.7-1.8-1.7-3.6-2.9-5.1c-1.2-1.5-2.7-2.8-4.5-3.6
						c-1.7-0.9-3.6-1.2-5.6-1.3c-1,0-1.9,0-2.9,0.2c-0.9,0.2-1.9,0.4-2.8,0.8c-1.8,0.7-3.3,2-4.4,3.6c-1.1,1.6-1.9,3.4-2.3,5.4
						c-0.5,1.9-0.7,3.9-0.7,5.9c-0.4-4,0.1-8.2,2.3-11.8c1.1-1.8,2.8-3.2,4.7-4.1c1-0.4,2-0.7,3-0.9c1-0.2,2.1-0.2,3.1-0.2
						c2.1,0.1,4.2,0.5,6.1,1.5c1.9,1,3.5,2.4,4.7,4.1C449.6,177.5,450.8,181.6,451,185.6z"/>
				</g>
			</g>
			<g>
				<path class="st8" d="M485,79.2c-4.7-18.8-15.9-23.5-21.3-24.7c-3.1-48.4-132.3-57.2-134-48c-1.8,9.9,45.8,26,45.8,26
					s-85.3-22.4-80.8-2.7c3.6,16,38.1,14.3,50.9,13.1c-18,2.2-79.5,12.1-51.8,39.9c2.3,2.3,4.7,4.2,7.3,5.9
					c-2.6,34.4,7.6,115.3,7.6,115.3h7.2l-2.7-55.7c13.9-2.8,20.3-35.7,22.4-50.4c23.6,0.3,47.2-7.7,56-11
					c-5.3,2.5-13.6,8.1-4.5,16.5c9.3,8.6,42.6-1.9,59.4-7.9c3.1,13.1,13,49.9,27.7,52.8l-2.7,55.7h7.2
					C478.7,203.9,491.3,104.3,485,79.2z"/>
				<path class="st9" d="M485,79.2c-4.7-18.8-15.9-23.5-21.3-24.7c-0.6-8.8-5.4-16.4-12.8-22.7c-4,32.8-28,60.7-58.5,74.2
					c13.1,3.2,39.7-5.3,54.1-10.5c3.1,13.1,13,49.9,27.7,52.8l-2.7,55.7h7.2C478.7,203.9,491.3,104.3,485,79.2z"/>
			</g>
		</g>
	</g>
</g>
</svg>
